#!OML:ASF F:\VICON\USERDATA\INSTALL\rory3\rory3.ASF
:FULLY-SPECIFIED
:DEGREES
599
root 0.590905 15.7653 3.76234 8.11892 -45.1377 11.9612
lowerback 2.00698 6.89763 7.96868
upperback 4.96929 9.25521 -3.30751
thorax 5.96287 5.07989 -7.485
lowerneck -4.56551 -3.68283 -9.32522
upperneck 53.2809 -6.56725 2.79876
head 25.2258 -4.24554 2.17363
rclavicle 3.73715e-014 -1.90833e-014
rhumerus -40.3225 46.8834 -114.594
rradius 63.8419
rwrist -3.00513
rhand -26.1011 -36.0951
rfingers 7.12502
rthumb 0.448075 -66.0743
lclavicle 3.73715e-014 -1.90833e-014
lhumerus -28.147 -73.4711 102.551
lradius 97.9367
lwrist 40.4297
lhand -16.1749 -26.7444
lfingers 7.12502
lthumb 10.0314 2.99652
rfemur -58.8684 -3.29826 10.27
rtibia 83.8367
rfoot -8.55467 -19.586
rtoes -30.3457
lfemur -49.16 -21.7102 -28.5078
ltibia 56.3903
lfoot -22.4941 -1.83784
ltoes 15.6146
600
root 0.58321 15.7856 3.80296 7.86098 -45.5021 12.3656
lowerback 1.49464 7.12238 7.80277
upperback 5.19054 9.5284 -3.42557
thorax 6.54235 5.23942 -7.40948
lowerneck -4.56963 -3.76631 -9.38844
upperneck 53.1398 -6.80108 3.08178
head 25.1408 -4.31073 2.30786
rclavicle 6.67916e-014 1.74931e-014
rhumerus -40.0071 47.1303 -114.512
rradius 64.1526
rwrist -3.01298
rhand -27.6018 -33.9039
rfingers 7.12502
rthumb -1.00136 -63.8812
lclavicle 6.67916e-014 1.74931e-014
lhumerus -27.5398 -73.6504 102.09
lradius 97.9683
lwrist 40.5534
lhand -16.2405 -26.6252
lfingers 7.12502
lthumb 9.96813 3.11873
rfemur -58.6252 -3.32168 9.76901
rtibia 83.7118
rfoot -9.03654 -19.2112
rtoes -29.8506
lfemur -48.8158 -21.7269 -28.9791
ltibia 56.2174
lfoot -22.6291 -1.54483
ltoes 16.0232
601
root 0.583118 15.7854 3.79813 7.95723 -45.4663 12.317
lowerback 1.54558 7.25137 7.88126
upperback 5.21982 9.70501 -3.45634
thorax 6.60237 5.33634 -7.47078
lowerneck -4.37973 -3.89187 -9.40193
upperneck 53.0555 -7.08555 3.25882
head 25.0265 -4.39458 2.36328
rclavicle 3.26007e-014 3.02153e-014
rhumerus -39.8178 47.0933 -114.441
rradius 64.5524
rwrist -2.90002
rhand -27.9663 -33.22
rfingers 7.12502
rthumb -1.35335 -63.1954
lclavicle 3.26007e-014 3.02153e-014
lhumerus -27.4574 -74.0356 102.125
lradius 98.1345
lwrist 41.1062
lhand -16.8554 -26.5727
lfingers 7.12502
lthumb 9.37489 3.19883
rfemur -58.7122 -3.34212 9.83412
rtibia 83.7313
rfoot -9.01031 -19.2789
rtoes -29.8051
lfemur -48.9065 -21.7111 -28.9407
ltibia 56.2402
lfoot -22.6128 -1.43602
ltoes 15.5619
602
root 0.581901 15.7865 3.79211 7.98593 -45.4345 12.3498
lowerback 1.6979 7.39018 7.87713
upperback 5.23863 9.90521 -3.54832
thorax 6.59527 5.44118 -7.56443
lowerneck -4.38695 -4.07035 -9.13949
upperneck 53.0735 -7.41437 3.21057
head 25.0731 -4.45725 2.21749
rclavicle 6.2816e-014 1.90833e-014
rhumerus -39.7014 46.8837 -114.489
rradius 65.0456
rwrist -2.84442
rhand -27.957 -32.8183
rfingers 7.12502
rthumb -1.34438 -62.7938
lclavicle 6.2816e-014 1.90833e-014
lhumerus -27.2927 -74.6208 101.933
lradius 98.3271
lwrist 41.4222
lhand -17.436 -26.7176
lfingers 7.12502
lthumb 8.81457 3.07833
rfemur -58.7819 -3.38564 9.84358
rtibia 83.718
rfoot -8.78273 -19.3458
rtoes -30.0811
lfemur -48.9408 -21.7123 -28.945
ltibia 56.175
lfoot -22.5565 -1.36969
ltoes 15.1013
603
root 0.57801 15.7886 3.79289 8.01458 -45.4727 12.38
lowerback 1.6773 7.29671 7.99778
upperback 5.20082 9.78133 -3.60589
thorax 6.57502 5.38682 -7.70456
lowerneck -4.2986 -3.94008 -9.46671
upperneck 53.1757 -7.27044 3.46756
head 25.2168 -4.46413 2.47199
rclavicle -1.11319e-014 3.02153e-014
rhumerus -40.4409 47.2746 -115.365
rradius 65.5615
rwrist -3.01639
rhand -28.1747 -32.5667
rfingers 7.12502
rthumb -1.55461 -62.5408
lclavicle -1.11319e-014 3.02153e-014
lhumerus -27.6073 -74.4043 102.029
lradius 98.4408
lwrist 41.4826
lhand -17.6959 -27.0862
lfingers 7.12502
lthumb 8.56386 2.72016
rfemur -58.8071 -3.36718 9.80794
rtibia 83.7371
rfoot -8.9023 -19.2649
rtoes -30.0765
lfemur -49.0076 -21.6936 -28.9551
ltibia 56.2688
lfoot -22.6407 -1.36998
ltoes 15.2405
604
root 0.575373 15.7921 3.79801 8.08915 -45.5345 12.3317
lowerback 1.56305 7.23551 8.18744
upperback 5.2793 9.69019 -3.63559
thorax 6.74923 5.36199 -7.82823
lowerneck -4.30284 -3.85987 -9.83602
upperneck 53.1322 -7.19989 3.79864
head 25.2522 -4.49214 2.76011
rclavicle 4.05521e-014 -6.36111e-015
rhumerus -40.7696 47.797 -115.89
rradius 65.9726
rwrist -3.11858
rhand -28.1091 -32.8427
rfingers 7.12502
rthumb -1.49126 -62.8173
lclavicle 4.05521e-014 -6.36111e-015
lhumerus -27.2628 -74.2651 101.559
lradius 98.5216
lwrist 41.4865
lhand -18.0575 -27.6415
lfingers 7.12502
lthumb 8.21486 2.17876
rfemur -58.7916 -3.32057 9.80775
rtibia 83.7345
rfoot -9.03389 -19.1541
rtoes -30.0536
lfemur -49.0915 -21.7637 -28.8512
ltibia 56.365
lfoot -22.791 -1.23233
ltoes 14.8706
605
root 0.588525 15.7632 3.74016 8.81871 -45.1097 11.5
lowerback 2.41251 7.20264 8.33199
upperback 5.08064 9.68626 -3.32253
thorax 6.01382 5.32042 -7.70373
lowerneck -4.14905 -4.03433 -9.85376
upperneck 53.0362 -7.44815 3.74393
head 25.105 -4.57796 2.68115
rclavicle -1.03368e-014 2.06736e-014
rhumerus -40.9294 47.7423 -115.802
rradius 66.5199
rwrist -2.92909
rhand -27.8265 -32.9548
rfingers 7.12502
rthumb -1.21836 -62.9311
lclavicle -1.03368e-014 2.06736e-014
lhumerus -27.6224 -74.4585 102.226
lradius 98.5413
lwrist 41.1911
lhand -18.0883 -27.6944
lfingers 7.12502
lthumb 8.18509 2.12707
rfemur -59.3566 -3.1401 10.69
rtibia 83.8872
rfoot -8.69862 -19.6988
rtoes -29.8668
lfemur -49.8709 -21.7114 -27.8188
ltibia 56.5656
lfoot -22.5591 -1.88711
ltoes 14.7032
